# xmcd
#
# Track frame offsets:
#	150
#	16010
#	35432
#	64222
#
# Disc length: 2028 seconds
#
# Revision: 1
# Processed by: cddbd v1.5.2PL0 Copyright (c) Steve Scherf et al.
# Submitted via: audiograbber 1.83.01
#
DISCID=2807ea04
DTITLE=Lee Carbrera - Shake it (single)
DYEAR=2003
DGENRE=House
TTITLE0=Shake it (vocal radio edit - Ft Alex Cartana)
TTITLE1=Shake it (original edit - Ft Alex Cartana)
TTITLE2=Shake it (Antoine Clamaran remix edit - Ft Alex Cartana)
TTITLE3=Piste de données
EXTD=
EXTT0=
EXTT1=
EXTT2=
EXTT3=
PLAYORDER=
